<svg xmlns="http://www.w3.org/2000/svg" version="1.1" xmlns:xlink="http://www.w3.org/1999/xlink" xmlns:svgjs="http://svgjs.dev/svgjs" width="1500" height="405" viewBox="0 0 1500 405"><g transform="matrix(1,0,0,1,-0.9090909090909918,0.562532012614497)"><svg viewBox="0 0 396 107" data-background-color="#ffffff" preserveAspectRatio="xMidYMid meet" height="405" width="1500" xmlns="http://www.w3.org/2000/svg" xmlns:xlink="http://www.w3.org/1999/xlink"><g id="tight-bounds" transform="matrix(1,0,0,1,0.2400000000000091,-0.14861956876481486)"><svg viewBox="0 0 395.52 107.29702819734126" height="107.29702819734126" width="395.52"><g><svg viewBox="0 0 601.323827888061 163.12767929975342" height="107.29702819734126" width="395.52"><g transform="matrix(1,0,0,1,205.8038278880611,36.37060888064594)"><svg viewBox="0 0 395.52 90.38646153846155" height="90.38646153846155" width="395.52"><g id="textblocktransform"><svg viewBox="0 0 395.52 90.38646153846155" height="90.38646153846155" width="395.52" id="textblock"><g><svg viewBox="0 0 395.52 90.38646153846155" height="90.38646153846155" width="395.52"><g transform="matrix(1,0,0,1,0,0)"><svg width="395.52" viewBox="1.85 -35.2 155.99 35.650000000000006" height="90.38646153846155" data-palette-color="#33bbcf"><g class="wordmark-text-0" data-fill-palette-color="primary" id="text-0"><path d="M35.75-24.75L28.9-24.75Q27.55-27.35 25.15-28.68 22.75-30 19.6-30L19.6-30Q16.15-30 13.45-28.45 10.75-26.9 9.22-24.05 7.7-21.2 7.7-17.45L7.7-17.45Q7.7-13.7 9.22-10.83 10.75-7.95 13.45-6.4 16.15-4.85 19.6-4.85L19.6-4.85Q24.25-4.85 27.15-7.45 30.05-10.05 30.7-14.5L30.7-14.5 17.65-14.5 17.65-19.05 36.8-19.05 36.8-14.6Q36.25-10.55 33.93-7.15 31.6-3.75 27.88-1.73 24.15 0.3 19.6 0.3L19.6 0.3Q14.7 0.3 10.65-1.98 6.6-4.25 4.23-8.3 1.85-12.35 1.85-17.45L1.85-17.45Q1.85-22.55 4.23-26.6 6.6-30.65 10.68-32.93 14.75-35.2 19.6-35.2L19.6-35.2Q25.15-35.2 29.48-32.48 33.8-29.75 35.75-24.75L35.75-24.75ZM67.65-14.45Q67.65-12.9 67.45-11.65L67.45-11.65 46.4-11.65Q46.65-8.35 48.85-6.35 51.05-4.35 54.25-4.35L54.25-4.35Q58.85-4.35 60.75-8.2L60.75-8.2 66.9-8.2Q65.65-4.4 62.37-1.98 59.1 0.45 54.25 0.45L54.25 0.45Q50.3 0.45 47.17-1.33 44.05-3.1 42.27-6.33 40.5-9.55 40.5-13.8L40.5-13.8Q40.5-18.05 42.22-21.28 43.95-24.5 47.07-26.25 50.2-28 54.25-28L54.25-28Q58.15-28 61.2-26.3 64.25-24.6 65.95-21.53 67.65-18.45 67.65-14.45L67.65-14.45ZM46.45-16.25L61.7-16.25Q61.65-19.4 59.45-21.3 57.25-23.2 54-23.2L54-23.2Q51.05-23.2 48.95-21.33 46.85-19.45 46.45-16.25L46.45-16.25ZM87.15-28Q90.4-28 92.97-26.65 95.55-25.3 97-22.65 98.45-20 98.45-16.25L98.45-16.25 98.45 0 92.8 0 92.8-15.4Q92.8-19.1 90.95-21.08 89.09-23.05 85.9-23.05L85.9-23.05Q82.7-23.05 80.82-21.08 78.95-19.1 78.95-15.4L78.95-15.4 78.95 0 73.25 0 73.25-27.55 78.95-27.55 78.95-24.4Q80.34-26.1 82.52-27.05 84.7-28 87.15-28L87.15-28ZM105.69-34.75L126.14-34.75 126.14-30.1 111.39-30.1 111.39-19.85 122.89-19.85 122.89-15.2 111.39-15.2 111.39 0 105.69 0 105.69-34.75ZM129.54-13.9Q129.54-18.05 131.27-21.25 132.99-24.45 135.97-26.23 138.94-28 142.54-28L142.54-28Q145.79-28 148.22-26.73 150.64-25.45 152.09-23.55L152.09-23.55 152.09-27.55 157.84-27.55 157.84 0 152.09 0 152.09-4.1Q150.64-2.15 148.14-0.85 145.64 0.45 142.44 0.45L142.44 0.45Q138.89 0.45 135.94-1.38 132.99-3.2 131.27-6.48 129.54-9.75 129.54-13.9L129.54-13.9ZM152.09-13.8Q152.09-16.65 150.92-18.75 149.74-20.85 147.84-21.95 145.94-23.05 143.74-23.05L143.74-23.05Q141.54-23.05 139.64-21.98 137.74-20.9 136.56-18.82 135.39-16.75 135.39-13.9L135.39-13.9Q135.39-11.05 136.56-8.9 137.74-6.75 139.67-5.63 141.59-4.5 143.74-4.5L143.74-4.5Q145.94-4.5 147.84-5.6 149.74-6.7 150.92-8.83 152.09-10.95 152.09-13.8L152.09-13.8Z" fill="#33bbcf" data-fill-palette-color="primary"></path></g></svg></g></svg></g></svg></g></svg></g><g><svg viewBox="0 0 163.12767929975342 163.12767929975342" height="163.12767929975342" width="163.12767929975342"><g><svg></svg></g><g id="icon-0"><svg viewBox="0 0 163.12767929975342 163.12767929975342" height="163.12767929975342" width="163.12767929975342"><g><path d="M0 81.564c0-45.046 36.517-81.564 81.564-81.564 45.046 0 81.564 36.517 81.564 81.564 0 45.046-36.517 81.564-81.564 81.564-45.046 0-81.564-36.517-81.564-81.564zM81.564 154.977c40.545 0 73.413-32.868 73.413-73.413 0-40.545-32.868-73.413-73.413-73.413-40.545 0-73.413 32.868-73.413 73.413 0 40.545 32.868 73.413 73.413 73.413z" data-fill-palette-color="accent" fill="#ffffff" stroke="transparent"></path><ellipse rx="80.74820125337794" ry="80.74820125337794" cx="81.56383964987671" cy="81.56383964987671" fill="#ffffff" stroke="transparent" stroke-width="0" fill-opacity="1" data-fill-palette-color="accent"></ellipse></g><g transform="matrix(1,0,0,1,46.38041327266528,36.13469020677404)"><svg viewBox="0 0 70.36685275442287 90.85829888620535" height="90.85829888620535" width="70.36685275442287"><g><svg xmlns="http://www.w3.org/2000/svg" xmlns:xlink="http://www.w3.org/1999/xlink" version="1.1" x="0" y="0" viewBox="5.8 0.5 36.4 47" enable-background="new 0 0 48 48" xml:space="preserve" height="90.85829888620535" width="70.36685275442287" class="icon-cg-0" data-fill-palette-color="quaternary" id="cg-0"><path fill="#000000" d="M32.9 0.5H5.8v47h36.4V9.8L32.9 0.5zM19.6 18.9c-0.2-0.4-0.7-0.7-1.3-1.1-1.5-0.7-2.5-1.3-3.2-2.1-0.7-0.7-1-1.8-1-3.2 0-1.3 0.4-2.3 1.1-3.1C15.8 8.6 16.8 8.2 18 8V5.6h1.6V8c1.1 0.2 2 0.8 2.7 1.7 0.7 0.9 1 2.1 1 3.6h-3.2c0-0.9-0.1-1.6-0.4-2-0.3-0.5-0.6-0.7-1-0.7-0.4 0-0.8 0.2-1 0.6-0.2 0.4-0.3 0.9-0.3 1.5 0 0.6 0.1 1 0.4 1.4 0.2 0.4 0.7 0.7 1.3 1.1 1.5 0.7 2.5 1.4 3.2 2.1 0.7 0.7 1 1.8 1 3.1 0 1.3-0.3 2.3-1 3.1-0.7 0.8-1.6 1.3-2.8 1.4v2.3h-1.6v-2.3c-1.2-0.2-2.2-0.7-3-1.5-0.8-0.9-1.2-2.1-1.2-3.8h3.2c0 1 0.2 1.8 0.5 2.2 0.3 0.4 0.8 0.7 1.3 0.7 0.5 0 0.8-0.2 1.1-0.6 0.2-0.4 0.4-0.9 0.4-1.5C20 19.8 19.9 19.3 19.6 18.9zM35.7 41.1H12.3c-0.6 0-1-0.5-1-1s0.5-1 1-1h23.5c0.6 0 1 0.5 1 1S36.3 41.1 35.7 41.1zM35.7 33.7H12.3c-0.6 0-1-0.5-1-1s0.5-1 1-1h23.5c0.6 0 1 0.5 1 1S36.3 33.7 35.7 33.7zM30.8 11.9V2.6l9.3 9.3H30.8z" data-fill-palette-color="quaternary"></path></svg></g></svg></g></svg></g></svg></g></svg></g><defs></defs></svg><rect width="395.52" height="107.29702819734126" fill="none" stroke="none" visibility="hidden"></rect></g></svg></g></svg>