<svg xmlns="http://www.w3.org/2000/svg" version="1.1" xmlns:xlink="http://www.w3.org/1999/xlink" xmlns:svgjs="http://svgjs.dev/svgjs" width="1500" height="333" viewBox="0 0 1500 333"><g transform="matrix(1,0,0,1,-0.9090909090909918,-0.3466881157046089)"><svg viewBox="0 0 396 88" data-background-color="#ffffff" preserveAspectRatio="xMidYMid meet" height="333" width="1500" xmlns="http://www.w3.org/2000/svg" xmlns:xlink="http://www.w3.org/1999/xlink"><g id="tight-bounds" transform="matrix(1,0,0,1,0.2400000000000091,0.09161727982584011)"><svg viewBox="0 0 395.52 87.81646448976821" height="87.81646448976821" width="395.52"><g><svg viewBox="0 0 550.0822017045632 122.13358144327036" height="87.81646448976821" width="395.52"><g transform="matrix(1,0,0,1,154.56220170456328,26.72549781035564)"><svg viewBox="0 0 395.52 68.68258582255908" height="68.68258582255908" width="395.52"><g id="textblocktransform"><svg viewBox="0 0 395.52 68.68258582255908" height="68.68258582255908" width="395.52" id="textblock"><g><svg viewBox="0 0 395.52 68.68258582255908" height="68.68258582255908" width="395.52"><g transform="matrix(1,0,0,1,0,0)"><svg width="395.52" viewBox="1.85 -38.5 224.28 38.95" height="68.68258582255908" data-palette-color="#33bbcf"><g class="wordmark-text-0" data-fill-palette-color="primary" id="text-0"><path d="M1.85-17.45Q1.85-22.55 4.23-26.6 6.6-30.65 10.68-32.93 14.75-35.2 19.6-35.2L19.6-35.2Q25.15-35.2 29.48-32.48 33.8-29.75 35.75-24.75L35.75-24.75 28.9-24.75Q27.55-27.5 25.15-28.85 22.75-30.2 19.6-30.2L19.6-30.2Q16.15-30.2 13.45-28.65 10.75-27.1 9.22-24.2 7.7-21.3 7.7-17.45L7.7-17.45Q7.7-13.6 9.22-10.7 10.75-7.8 13.45-6.23 16.15-4.65 19.6-4.65L19.6-4.65Q22.75-4.65 25.15-6 27.55-7.35 28.9-10.1L28.9-10.1 35.75-10.1Q33.8-5.1 29.48-2.4 25.15 0.3 19.6 0.3L19.6 0.3Q14.7 0.3 10.65-1.98 6.6-4.25 4.23-8.3 1.85-12.35 1.85-17.45L1.85-17.45ZM42.4-37L48.1-37 48.1 0 42.4 0 42.4-37ZM58.5-31.2Q56.95-31.2 55.9-32.25 54.85-33.3 54.85-34.85L54.85-34.85Q54.85-36.4 55.9-37.45 56.95-38.5 58.5-38.5L58.5-38.5Q60-38.5 61.05-37.45 62.1-36.4 62.1-34.85L62.1-34.85Q62.1-33.3 61.05-32.25 60-31.2 58.5-31.2L58.5-31.2ZM55.6-27.55L61.3-27.55 61.3 0 55.6 0 55.6-27.55ZM66.89-13.8Q66.89-18.05 68.62-21.28 70.34-24.5 73.39-26.25 76.44-28 80.39-28L80.39-28Q85.39-28 88.67-25.63 91.94-23.25 93.09-18.85L93.09-18.85 86.94-18.85Q86.19-20.9 84.54-22.05 82.89-23.2 80.39-23.2L80.39-23.2Q76.89-23.2 74.82-20.73 72.74-18.25 72.74-13.8L72.74-13.8Q72.74-9.35 74.82-6.85 76.89-4.35 80.39-4.35L80.39-4.35Q85.34-4.35 86.94-8.7L86.94-8.7 93.09-8.7Q91.89-4.5 88.59-2.02 85.29 0.45 80.39 0.45L80.39 0.45Q76.44 0.45 73.39-1.33 70.34-3.1 68.62-6.33 66.89-9.55 66.89-13.8L66.89-13.8ZM122.39-27.55L109.69-13.75 122.39 0 114.69 0 104.49-11.85 104.49 0 98.79 0 98.79-37 104.49-37 104.49-15.5 114.49-27.55 122.39-27.55ZM155.04-34.8L155.04 0 149.34 0 132.19-25.95 132.19 0 126.49 0 126.49-34.8 132.19-34.8 149.34-8.9 149.34-34.8 155.04-34.8ZM181.14-17.85Q183.94-17.35 185.89-14.9 187.84-12.45 187.84-9.35L187.84-9.35Q187.84-6.7 186.46-4.58 185.09-2.45 182.49-1.23 179.89 0 176.44 0L176.44 0 162.54 0 162.54-34.75 175.79-34.75Q179.34-34.75 181.89-33.55 184.44-32.35 185.74-30.33 187.04-28.3 187.04-25.8L187.04-25.8Q187.04-22.8 185.44-20.8 183.84-18.8 181.14-17.85L181.14-17.85ZM168.24-30.1L168.24-20.15 175.29-20.15Q178.09-20.15 179.66-21.43 181.24-22.7 181.24-25.1L181.24-25.1Q181.24-27.45 179.66-28.78 178.09-30.1 175.29-30.1L175.29-30.1 168.24-30.1ZM175.94-4.65Q178.84-4.65 180.49-6.05 182.14-7.45 182.14-9.95L182.14-9.95Q182.14-12.5 180.39-14 178.64-15.5 175.74-15.5L175.74-15.5 168.24-15.5 168.24-4.65 175.94-4.65ZM196.93-31.2Q195.38-31.2 194.33-32.25 193.28-33.3 193.28-34.85L193.28-34.85Q193.28-36.4 194.33-37.45 195.38-38.5 196.93-38.5L196.93-38.5Q198.43-38.5 199.48-37.45 200.53-36.4 200.53-34.85L200.53-34.85Q200.53-33.3 199.48-32.25 198.43-31.2 196.93-31.2L196.93-31.2ZM194.03-27.55L199.73-27.55 199.73 0 194.03 0 194.03-27.55ZM207.23-37L212.93-37 212.93 0 207.23 0 207.23-37ZM220.43-37L226.13-37 226.13 0 220.43 0 220.43-37Z" fill="#33bbcf" data-fill-palette-color="primary"></path></g></svg></g></svg></g></svg></g></svg></g><g><svg viewBox="0 0 122.13358144327036 122.13358144327036" height="122.13358144327036" width="122.13358144327036"><g><svg></svg></g><g id="icon-0"><svg viewBox="0 0 122.13358144327036 122.13358144327036" height="122.13358144327036" width="122.13358144327036"><g><path d="M0 61.067c0-33.726 27.341-61.067 61.067-61.067 33.726 0 61.067 27.341 61.067 61.067 0 33.726-27.341 61.067-61.067 61.067-33.726 0-61.067-27.341-61.067-61.067zM61.067 115.94c30.305 0 54.873-24.567 54.873-54.873 0-30.305-24.567-54.873-54.873-54.873-30.305 0-54.873 24.567-54.873 54.873 0 30.305 24.567 54.873 54.873 54.873z" data-fill-palette-color="accent" fill="#ffffff" stroke="transparent"></path><ellipse rx="60.456122814418826" ry="60.456122814418826" cx="61.06679072163518" cy="61.06679072163518" fill="#ffffff" stroke="transparent" stroke-width="0" fill-opacity="1" data-fill-palette-color="accent"></ellipse></g><g transform="matrix(1,0,0,1,36.0363294555476,28.74723908685177)"><svg viewBox="0 0 50.060922532175155 64.63910326956682" height="64.63910326956682" width="50.060922532175155"><g><svg xmlns="http://www.w3.org/2000/svg" xmlns:xlink="http://www.w3.org/1999/xlink" version="1.1" x="0" y="0" viewBox="5.8 0.5 36.4 47" enable-background="new 0 0 48 48" xml:space="preserve" height="64.63910326956682" width="50.060922532175155" class="icon-cg-0" data-fill-palette-color="quaternary" id="cg-0"><path fill="#000000" d="M32.9 0.5H5.8v47h36.4V9.8L32.9 0.5zM19.6 18.9c-0.2-0.4-0.7-0.7-1.3-1.1-1.5-0.7-2.5-1.3-3.2-2.1-0.7-0.7-1-1.8-1-3.2 0-1.3 0.4-2.3 1.1-3.1C15.8 8.6 16.8 8.2 18 8V5.6h1.6V8c1.1 0.2 2 0.8 2.7 1.7 0.7 0.9 1 2.1 1 3.6h-3.2c0-0.9-0.1-1.6-0.4-2-0.3-0.5-0.6-0.7-1-0.7-0.4 0-0.8 0.2-1 0.6-0.2 0.4-0.3 0.9-0.3 1.5 0 0.6 0.1 1 0.4 1.4 0.2 0.4 0.7 0.7 1.3 1.1 1.5 0.7 2.5 1.4 3.2 2.1 0.7 0.7 1 1.8 1 3.1 0 1.3-0.3 2.3-1 3.1-0.7 0.8-1.6 1.3-2.8 1.4v2.3h-1.6v-2.3c-1.2-0.2-2.2-0.7-3-1.5-0.8-0.9-1.2-2.1-1.2-3.8h3.2c0 1 0.2 1.8 0.5 2.2 0.3 0.4 0.8 0.7 1.3 0.7 0.5 0 0.8-0.2 1.1-0.6 0.2-0.4 0.4-0.9 0.4-1.5C20 19.8 19.9 19.3 19.6 18.9zM35.7 41.1H12.3c-0.6 0-1-0.5-1-1s0.5-1 1-1h23.5c0.6 0 1 0.5 1 1S36.3 41.1 35.7 41.1zM35.7 33.7H12.3c-0.6 0-1-0.5-1-1s0.5-1 1-1h23.5c0.6 0 1 0.5 1 1S36.3 33.7 35.7 33.7zM30.8 11.9V2.6l9.3 9.3H30.8z" data-fill-palette-color="quaternary"></path></svg></g></svg></g></svg></g></svg></g></svg></g><defs></defs></svg><rect width="395.52" height="87.81646448976821" fill="none" stroke="none" visibility="hidden"></rect></g></svg></g></svg>